PathFileType	4	(X/Y/Z)	C:\Users\Graham\Documents\MATLAB\MOtoNMS_v2_2\MyData\ElaboratedData\S6\17-05-19\staticElaborations\Static1\Static1\\Static1.trc
DataRate	CameraRate	NumFrames	NumMarkers	Units	OrigDataRate	DataStartFrame
100	100	8	38	mm	100	2
Frame#	Time	V_Sacral			R_ASIS			L_ASIS			R_Knee_Lat			R_Knee_Med			R_Thigh_Upper			R_Thigh_Front			R_Thigh_Rear			L_Knee_Lat			L_Knee_Med			L_Thigh_Upper			L_Thigh_Front			L_Thigh_Rear			R_Ankle_Lat			R_Ankle_Med			R_Shank_Upper			R_Shank_Front			R_Shank_Rear			L_Ankle_Lat			L_Ankle_Med			L_Shank_Upper			L_Shank_Front			L_Shank_Rear			R_Heel			R_MTP1			R_MTP5			L_Heel			L_MTP1			L_MTP5			Clavicle			R_Acromium			L_Acromium			LAJC			RAJC			LHJC			RHJC			LKJC			RKJC		
		X1	Y1	Z1	X2	Y2	Z2	X3	Y3	Z3	X4	Y4	Z4	X5	Y5	Z5	X6	Y6	Z6	X7	Y7	Z7	X8	Y8	Z8	X9	Y9	Z9	X10	Y10	Z10	X11	Y11	Z11	X12	Y12	Z12	X13	Y13	Z13	X14	Y14	Z14	X15	Y15	Z15	X16	Y16	Z16	X17	Y17	Z17	X18	Y18	Z18	X19	Y19	Z19	X20	Y20	Z20	X21	Y21	Z21	X22	Y22	Z22	X23	Y23	Z23	X24	Y24	Z24	X25	Y25	Z25	X26	Y26	Z26	X27	Y27	Z27	X28	Y28	Z28	X29	Y29	Z29	X30	Y30	Z30	X31	Y31	Z31	X32	Y32	Z32	X33	Y33	Z33	X34	Y34	Z34	X35	Y35	Z35	X36	Y36	Z36	X37	Y37	Z37	X38	Y38	Z38	

109	1.080000	-126.511048	1063.694194	18.577019	82.953311	1060.111537	168.840258	86.486797	1056.651390	-99.023412	-33.296120	547.379827	208.888642	6.225961	539.677093	88.757468	92.307876	814.616569	199.206850	93.499789	702.147254	151.254639	50.156064	707.005721	213.791822	-18.235701	559.531781	-139.504049	9.679486	530.459551	-23.922042	113.658121	803.962714	-99.133541	94.888552	689.612694	-54.731960	71.781566	690.293795	-129.708350	-135.053018	102.795672	206.193372	-81.021742	111.197553	120.544818	-12.944324	366.259137	190.316123	-39.265388	251.010207	149.975020	-58.947570	256.682387	215.066366	-115.766596	97.998157	-153.455263	-68.245226	100.380097	-63.773237	-4.637394	373.858753	-129.608785	-23.137392	265.739994	-91.028843	-47.465549	268.270855	-158.892838	-187.806478	32.159855	146.341492	45.499388	61.217963	187.341378	-0.942621	55.006823	256.629673	-173.405730	50.351095	-99.778987	66.405765	53.713258	-112.652983	28.142443	48.357476	-200.902905	73.718880	1485.025135	17.513444	-21.775660	1540.759980	222.996153	-8.608485	1528.872053	-183.380396	-92.005911	99.189127	-108.614250	-108.037380	106.996613	163.369095	22.862297	967.487189	-60.459819	20.337636	969.959450	130.927716	-4.278108	544.995666	-81.713046	-13.535079	543.528460	148.823055	
110	1.090000	-126.391629	1063.702190	18.532461	83.022641	1060.090675	168.820285	86.606937	1056.637933	-99.054768	-33.247785	547.383987	208.863625	6.260187	539.630135	88.731285	92.375930	814.603586	199.185862	93.551378	702.128153	151.233375	50.218062	707.006101	213.767387	-18.195464	559.531772	-139.507469	9.714800	530.464596	-23.937261	113.740285	803.943467	-99.157602	95.045142	689.620056	-54.731577	71.695910	690.262253	-129.762572	-135.049227	102.805783	206.186640	-81.015855	111.201113	120.540732	-12.911265	366.262083	190.302549	-39.243667	251.014984	149.965817	-58.928344	256.691208	215.057062	-115.761859	98.002814	-153.449488	-68.242385	100.384217	-63.777013	-4.613903	373.858692	-129.617668	-23.120420	265.742403	-91.033629	-47.444714	268.273868	-158.900884	-187.804518	32.162853	146.342034	45.503657	61.217759	187.335349	-0.941492	55.007039	256.628909	-173.403553	50.353785	-99.777558	66.408127	53.711773	-112.654626	28.142930	48.355750	-200.903821	73.742614	1485.008324	17.495376	-21.750013	1540.746187	222.976555	-8.561274	1528.850038	-183.405108	-92.002122	99.193516	-108.613250	-108.032541	107.003448	163.363686	22.969836	967.476398	-60.503809	20.408879	969.943360	130.891207	-4.240332	544.998184	-81.722365	-13.493799	543.507061	148.797455	
111	1.100000	-126.265220	1063.710002	18.484009	83.092702	1060.066773	168.798342	86.731106	1056.624049	-99.088278	-33.198742	547.387545	208.836527	6.299594	539.590291	88.703672	92.445603	814.589578	199.164036	93.602761	702.107373	151.211774	50.278916	707.004792	213.742364	-18.155907	559.532131	-139.511467	9.749960	530.468615	-23.953777	113.825935	803.924475	-99.183571	95.198873	689.627309	-54.732978	71.617353	690.233713	-129.817607	-135.045969	102.815524	206.179618	-81.010225	111.204369	120.536160	-12.877378	366.263932	190.286641	-39.222298	251.018882	149.955159	-58.908994	256.699837	215.046269	-115.758256	98.005864	-153.436085	-68.239610	100.388886	-63.780775	-4.590554	373.859040	-129.627403	-23.103191	265.745080	-91.038996	-47.424328	268.277104	-158.909597	-187.802777	32.165953	146.342263	45.508217	61.217643	187.327168	-0.939206	55.007753	256.628048	-173.401629	50.356472	-99.776160	66.410940	53.710280	-112.656423	28.143147	48.353530	-200.904665	73.760894	1484.989806	17.479095	-21.729063	1540.731807	222.958199	-8.518002	1528.828184	-183.426377	-91.998933	99.197375	-108.608430	-108.028097	107.009947	163.357889	23.081350	967.465165	-60.551571	20.481743	969.924961	130.851046	-4.202973	545.000373	-81.732622	-13.449574	543.488918	148.770099	
112	1.110000	-126.133466	1063.716298	18.432753	83.163245	1060.039612	168.774923	86.859009	1056.609243	-99.123374	-33.148954	547.390370	208.807633	6.343773	539.560095	88.674679	92.517635	814.574564	199.140497	93.654983	702.085529	151.188496	50.338824	707.001391	213.715528	-18.116935	559.532825	-139.515964	9.785287	530.471281	-23.971055	113.915480	803.906031	-99.211186	95.343831	689.632536	-54.737261	71.555951	690.208316	-129.871150	-135.043110	102.824653	206.172427	-81.004880	111.207061	120.531075	-12.843042	366.264415	190.268444	-39.201623	251.021453	149.942886	-58.889471	256.707976	215.033847	-115.756214	98.006738	-153.413207	-68.236797	100.393955	-63.784417	-4.567260	373.859739	-129.637699	-23.085718	265.748033	-91.044825	-47.404392	268.280533	-158.918782	-187.801303	32.169151	146.342134	45.513109	61.217710	187.317127	-0.936045	55.008885	256.626961	-173.400101	50.359243	-99.774977	66.414173	53.708808	-112.658374	28.143127	48.350822	-200.905453	73.774137	1484.969242	17.464853	-21.713379	1540.714504	222.941398	-8.477354	1528.808236	-183.443594	-91.996506	99.200346	-108.598812	-108.023995	107.015857	163.351751	23.196665	967.452764	-60.602443	20.556084	969.903724	130.807847	-4.165824	545.002053	-81.743509	-13.402591	543.475233	148.741156	
113	1.120000	-125.998462	1063.719772	18.379847	83.234032	1060.009388	168.750592	86.990196	1056.593229	-99.159488	-33.098555	547.392439	208.777329	6.391906	539.540879	88.644508	92.592846	814.558698	199.114343	93.709404	702.063402	151.162251	50.398225	706.995724	213.685669	-18.078436	559.533962	-139.520940	9.820848	530.472528	-23.988542	114.009457	803.888476	-99.240176	95.476031	689.634387	-54.745177	71.519323	690.185945	-129.921307	-135.040413	102.833008	206.165164	-80.999774	111.208978	120.525495	-12.808705	366.263464	190.248320	-39.181903	251.022404	149.929072	-58.869868	256.715395	215.019860	-115.756034	98.005034	-153.379533	-68.233807	100.399299	-63.787908	-4.543970	373.860867	-129.648218	-23.068054	265.751395	-91.050975	-47.384843	268.284242	-158.928270	-187.800107	32.172415	146.341624	45.518341	61.217977	187.305811	-0.932413	55.010291	256.625571	-173.399034	50.362223	-99.774158	66.417774	53.707361	-112.660484	28.142914	48.347661	-200.906226	73.783052	1484.946574	17.452867	-21.703406	1540.692342	222.926363	-8.437840	1528.791734	-183.456432	-91.994921	99.202167	-108.583721	-108.020094	107.020993	163.345330	23.315505	967.438606	-60.655639	20.631778	969.879404	130.762392	-4.128794	545.003245	-81.754741	-13.353325	543.466659	148.710919	
114	1.130000	-125.862527	1063.719362	18.326385	83.304853	1059.976716	168.725938	87.124014	1056.576010	-99.196071	-33.047798	547.393808	208.746068	6.443019	539.532807	88.613576	92.671975	814.542251	199.084885	93.767544	702.041854	151.132118	50.457701	706.987856	213.651889	-18.040281	559.535768	-139.526466	9.856465	530.472559	-24.005694	114.108399	803.872173	-99.270214	95.593858	689.632254	-54.756984	71.511772	690.166279	-129.966745	-135.037578	102.840536	206.157901	-80.994799	111.209996	120.519492	-12.774807	366.261209	190.226906	-39.163276	251.021609	149.914023	-58.850408	256.721934	215.004577	-115.757861	98.000592	-153.334518	-68.230484	100.404845	-63.791286	-4.520668	373.862625	-129.658609	-23.050285	265.755400	-91.057293	-47.365566	268.288420	-158.937917	-187.799154	32.175689	146.340730	45.523844	61.218362	187.294061	-0.928767	55.011782	256.623858	-173.398405	50.365550	-99.773783	66.421665	53.705907	-112.662755	28.142566	48.344120	-200.907044	73.788601	1484.922088	17.443328	-21.699364	1540.664064	222.913211	-8.398010	1528.779827	-183.464865	-91.994173	99.202719	-108.562902	-108.016189	107.025266	163.338696	23.437435	967.422366	-60.710284	20.708708	969.852115	130.715583	-4.091908	545.004164	-81.766080	-13.302389	543.463308	148.679822	
115	1.140000	-125.727961	1063.714436	18.273293	83.375536	1059.942575	168.701522	87.259581	1056.557901	-99.232619	-32.996964	547.394587	208.714329	6.496245	539.535083	88.582523	92.755533	814.525580	199.051846	93.830888	702.021732	151.097792	50.517865	706.978067	213.613834	-18.002310	559.538542	-139.532713	9.891787	530.471808	-24.022018	114.212668	803.857461	-99.300886	95.697963	689.626277	-54.772422	71.534098	690.148888	-130.006728	-135.034290	102.847300	206.150670	-80.989814	111.210106	120.513182	-12.741692	366.257937	190.205040	-39.145724	251.019117	149.898221	-58.831368	256.727505	214.988438	-115.761667	97.993544	-153.278538	-68.226686	100.410566	-63.794634	-4.497358	373.865293	-129.668548	-23.032512	265.760345	-91.063620	-47.346411	268.293315	-158.947617	-187.798370	32.178899	146.339467	45.529461	61.218698	187.282885	-0.925547	55.013152	256.621857	-173.398110	50.369348	-99.773840	66.425745	53.704392	-112.665181	28.142158	48.340311	-200.907969	73.791955	1484.896422	17.436407	-21.701171	1540.629251	222.901969	-8.356632	1528.773181	-183.469169	-91.994177	99.202055	-108.536586	-108.012052	107.028703	163.331926	23.561811	967.404067	-60.765470	20.786734	969.822352	130.668365	-4.055261	545.005175	-81.777366	-13.250359	543.464835	148.648426	
116	1.150000	-125.596811	1063.704904	18.221250	83.445950	1059.908188	168.677819	87.395795	1056.539511	-99.268690	-32.946264	547.394907	208.682578	6.550986	539.546132	88.552160	92.843657	814.509074	199.015500	93.900661	702.003772	151.059720	50.579254	706.966798	213.571826	-17.964298	559.542578	-139.539930	9.926416	530.470862	-24.037122	114.322278	803.844613	-99.331695	95.790742	689.617220	-54.790796	71.584008	690.133336	-130.041070	-135.030270	102.853470	206.143472	-80.984666	111.209428	120.506720	-12.709534	366.254032	190.183628	-39.129068	251.015124	149.882240	-58.812994	256.732084	214.971988	-115.767253	97.984311	-153.212914	-68.222315	100.416479	-63.798058	-4.474040	373.869164	-129.677774	-23.014830	265.766516	-91.069810	-47.327212	268.299170	-158.957297	-187.797653	32.181968	146.337864	45.534959	61.218758	187.273311	-0.923104	55.014207	256.619635	-173.397996	50.373699	-99.774223	66.429901	53.702756	-112.667738	28.141778	48.336391	-200.909049	73.794442	1484.870525	17.432237	-21.708398	1540.588337	222.892591	-8.312807	1528.771983	-183.469873	-91.994784	99.200395	-108.505486	-108.007468	107.031449	163.325096	23.687762	967.384107	-60.820307	20.865683	969.790953	130.621650	-4.018941	545.006720	-81.788526	-13.197639	543.470519	148.617369	
